# xmcd
#
# Track frame offsets: 
#        180
#        12881
#        26387
#        40005
#        53088
#        66396
#        80852
#        92842
#        106771
#        119158
#        137141
#        150221
#        172935
#        186727
#        196015
#        207378
#        218911
#        233492
#        247347
#        259905
#
# Disc length: 3640 seconds
#
# Revision: 2
# Processed by: cddbd v1.5.2PL0 Copyright (c) Steve Scherf et al.
# Submitted via: ExactAudioCopyFreeDBPlugin 1.0
#
DISCID=1b0e3614
DTITLE=Various Artist - Golden Greats Of Blues [CD5)
DYEAR=2006
DGENRE=Blues
TTITLE0=Muddy Waters - I Just Want To Make Love To You
TTITLE1=Ray Charles - The Midnight Hour
TTITLE2=Joe Williams And Count Basie - Kansas City Blues
TTITLE3=John Lee Hooker - I'm So Excited
TTITLE4=Ray Charles - Alone In The City
TTITLE5=Joe Williams And Count Basie - Roll 'em Pete
TTITLE6=Annie Laurie - It's Been A Long Time
TTITLE7=B. B. King - Please Love Me
TTITLE8=Helen Humes - Be-Baba-Le-Ba
TTITLE9=John Lee Hooker - House Rent Boogie
TTITLE10=Dinah Washington - Short John
TTITLE11=John Lee Hooker - Stand Back
TTITLE12=Annie Laurie - My Rough And Ready Man
TTITLE13=Bertice Reading - I'l Never Do It Again
TTITLE14=Big Joe Turner - Story To Tell
TTITLE15=Brownie McGhee - Step It Up And Go
TTITLE16=Bessie Smith - Cold In Hand Blues
TTITLE17=Big Bill Broonzy - The Sun Gonna Shine In My Door Someday
TTITLE18=Champion Jack Dupree - Gamplin Man Blues Champion
TTITLE19=Dr. Clayton - '41 Blues
EXTD=
EXTT0=
EXTT1=
EXTT2=
EXTT3=
EXTT4=
EXTT5=
EXTT6=
EXTT7=
EXTT8=
EXTT9=
EXTT10=
EXTT11=
EXTT12=
EXTT13=
EXTT14=
EXTT15=
EXTT16=
EXTT17=
EXTT18=
EXTT19=
PLAYORDER=
